<svg version="1.1" id="logo" xmlns="http://www.w3.org/2000/svg" xmlns:xlink="http://www.w3.org/1999/xlink" x="0px" y="0px"
	  viewBox="0 0 329.838 232.257" style="enable-background:new 0 0 329.838 232.257;"
	 xml:space="preserve">

<defs>
	<style>
		.st0 {
			fill:white;
			stroke:#000000;
			stroke-width:8;
			stroke-miterlimit:10;
			-webkit-animation: drawer 5s linear forwards;
			stroke-dasharray: 1800;
			stroke-dashoffset: 0;
			}

		@-webkit-keyframes drawer {

			0% {
				stroke-dashoffset: 1800;
			}

			50% {
				stroke-dashoffset:0;
				fill: white;
			}


			to {
				fill: #000;
			}
		}

		#logo:hover .st0 {
					}
</style>

	</defs>

<g>
	<path class="st0" d="M10.056,219.828c0-69.536,0-138.147,0-207.313c8.666,0,16.831,0,26.373,0c0,27.683,0,55.319,0,83.71
		c36.685,0,72.004,0,108.5,0c0-27.959,0-55.675,0-84.037c10.586,0,20.008,0,30.52,0c0,33.282,0,66.263,0,102.2
		c5.16-5.053,8.388-8.11,11.501-11.28c27.214-27.708,54.55-55.301,81.489-83.275c5.488-5.698,10.935-8.72,19.001-8.028
		c8.121,0.697,16.349,0.154,24.559,0.154c-27.638,29.318-54.775,58.106-82.598,87.622c28.39,38.345,58.156,78.55,89.421,120.779
		c-13.057,0-24.117,0.485-35.078-0.351c-2.651-0.201-5.332-4.506-7.387-7.364c-22.649-31.514-45.179-63.113-68.54-95.81
		c-10.471,10.306-20.74,20.003-30.396,30.277c-1.833,1.95-1.663,6.184-1.684,9.368c-0.135,21.174-0.07,42.348-0.07,64.153
		c-10.471,0-19.889,0-30.261,0c0-32.534,0-64.606,0-97.516c-36.231,0-71.526,0-108.118,0c0,31.945,0,63.938,0,96.709
		C27.6,219.828,19.191,219.828,10.056,219.828z"/>
</g>
</svg>
